<svg width="15" height="16" viewBox="0 0 15 16" fill="none" xmlns="http://www.w3.org/2000/svg">
<path d="M7.5 15.9933C7.43704 16.0022 7.37308 16.0022 7.31013 15.9933C3.00949 14.7524 0 10.5243 0 5.68038C0.000926195 4.78989 0.102802 3.90218 0.303797 3.03321C0.339341 2.88343 0.428343 2.7506 0.555123 2.65812C0.681904 2.56564 0.838327 2.51945 0.996835 2.52768C2.11632 2.58399 3.23508 2.40441 4.2759 2.00133C5.31671 1.59826 6.25477 0.981288 7.02532 0.193023C7.15093 0.0704061 7.32163 0.000996081 7.5 0V0C7.67837 0.000996081 7.84907 0.0704061 7.97468 0.193023C8.74523 0.981288 9.68329 1.59826 10.7241 2.00133C11.7649 2.40441 12.8837 2.58399 14.0032 2.52768C14.1625 2.51559 14.3209 2.56031 14.4485 2.65342C14.5762 2.74653 14.6643 2.8816 14.6962 3.03321C14.8972 3.90218 14.9991 4.78989 15 5.68038C15 10.5243 11.9905 14.7524 7.68987 15.9657C7.62833 15.9839 7.56435 15.9932 7.5 15.9933V15.9933ZM1.5 3.83288C1.38635 4.43947 1.32916 5.0547 1.32911 5.67119C1.32911 9.87173 3.85443 13.5484 7.5 14.6697C11.1456 13.5484 13.6709 9.87173 13.6709 5.67119C13.6693 5.05517 13.6153 4.44032 13.5095 3.83288C11.2854 3.79476 9.15077 2.97852 7.5 1.53499C5.85214 2.97718 3.72096 3.79338 1.5 3.83288V3.83288Z" fill="#798EA3"/>
<path d="M3.11374 12.8612C3.01224 12.861 2.91235 12.8366 2.82292 12.7901C2.7335 12.7436 2.6573 12.6765 2.60108 12.5946C2.51407 12.4611 2.48423 12.3 2.51791 12.1456C2.55159 11.9911 2.64613 11.8554 2.78146 11.7674C4.19984 10.8619 5.86112 10.3784 7.5601 10.3768C9.25909 10.3751 10.9214 10.8554 12.3416 11.7582C12.4643 11.8494 12.5471 11.9819 12.5737 12.1295C12.6002 12.277 12.5686 12.4289 12.485 12.5549C12.4014 12.6809 12.2719 12.7719 12.1223 12.8099C11.9727 12.8479 11.8138 12.8301 11.677 12.7601C10.4599 11.965 9.02506 11.5402 7.55678 11.5402C6.0885 11.5402 4.6537 11.965 3.43653 12.7601C3.34017 12.821 3.22872 12.8559 3.11374 12.8612V12.8612ZM7.40488 9.32243C6.64597 9.30803 5.92302 9.00661 5.39073 8.48267C4.85845 7.95874 4.55911 7.25391 4.55678 6.51901C4.55486 5.79822 4.84452 5.10535 5.36374 4.58878C5.91548 4.06612 6.6567 3.77344 7.42861 3.77344C8.20053 3.77344 8.94175 4.06612 9.49349 4.58878C10.0312 5.1152 10.3345 5.82461 10.3384 6.56497C10.3361 7.29987 10.0368 8.0047 9.50447 8.52863C8.97219 9.05256 8.24924 9.35398 7.49032 9.36839L7.40488 9.32243ZM7.40488 4.91049C7.18639 4.90936 6.96984 4.95022 6.76776 5.03068C6.56569 5.11115 6.38212 5.22962 6.22767 5.37925C5.92069 5.68463 5.74726 6.0929 5.74349 6.51901C5.74233 6.73055 5.78452 6.94021 5.86763 7.13585C5.95074 7.33149 6.07312 7.50922 6.22767 7.65876C6.54323 7.9404 6.95671 8.09676 7.38589 8.09676C7.81508 8.09676 8.22855 7.9404 8.54412 7.65876C8.70685 7.51277 8.83772 7.33671 8.92903 7.14096C9.02034 6.9452 9.07024 6.73373 9.07577 6.51901C9.06919 6.30447 9.01882 6.09331 8.92758 5.8977C8.83633 5.70209 8.70601 5.52589 8.54412 5.37925C8.24148 5.08594 7.83303 4.91787 7.40488 4.91049V4.91049Z" fill="#798EA3"/>
</svg>
