<svg width="17" height="16" viewBox="0 0 17 16" fill="none" xmlns="http://www.w3.org/2000/svg">
<path d="M13.4583 0H3.54167C2.6027 0.00115481 1.70252 0.384641 1.03857 1.06634C0.374625 1.74804 0.00112473 2.67229 0 3.63636L0 12.3636C0.00112473 13.3277 0.374625 14.252 1.03857 14.9337C1.70252 15.6154 2.6027 15.9988 3.54167 16H13.4583C14.3973 15.9988 15.2975 15.6154 15.9614 14.9337C16.6254 14.252 16.9989 13.3277 17 12.3636V3.63636C16.9989 2.67229 16.6254 1.74804 15.9614 1.06634C15.2975 0.384641 14.3973 0.00115481 13.4583 0ZM3.54167 1.45455H13.4583C14.0219 1.45455 14.5624 1.68442 14.9609 2.09359C15.3595 2.50276 15.5833 3.05771 15.5833 3.63636V4.36364H1.41667V3.63636C1.41667 3.05771 1.64055 2.50276 2.03906 2.09359C2.43758 1.68442 2.97808 1.45455 3.54167 1.45455ZM13.4583 14.5455H3.54167C2.97808 14.5455 2.43758 14.3156 2.03906 13.9064C1.64055 13.4972 1.41667 12.9423 1.41667 12.3636V5.81818H15.5833V12.3636C15.5833 12.9423 15.3595 13.4972 14.9609 13.9064C14.5624 14.3156 14.0219 14.5455 13.4583 14.5455ZM13.4583 8.72727C13.4583 8.92016 13.3837 9.10514 13.2509 9.24153C13.118 9.37792 12.9379 9.45455 12.75 9.45455H4.25C4.06214 9.45455 3.88197 9.37792 3.74913 9.24153C3.61629 9.10514 3.54167 8.92016 3.54167 8.72727C3.54167 8.53439 3.61629 8.3494 3.74913 8.21301C3.88197 8.07662 4.06214 8 4.25 8H12.75C12.9379 8 13.118 8.07662 13.2509 8.21301C13.3837 8.3494 13.4583 8.53439 13.4583 8.72727ZM10.625 11.6364C10.625 11.8292 10.5504 12.0142 10.4175 12.1506C10.2847 12.287 10.1045 12.3636 9.91667 12.3636H4.25C4.06214 12.3636 3.88197 12.287 3.74913 12.1506C3.61629 12.0142 3.54167 11.8292 3.54167 11.6364C3.54167 11.4435 3.61629 11.2585 3.74913 11.1221C3.88197 10.9857 4.06214 10.9091 4.25 10.9091H9.91667C10.1045 10.9091 10.2847 10.9857 10.4175 11.1221C10.5504 11.2585 10.625 11.4435 10.625 11.6364ZM2.125 2.90909C2.125 2.76525 2.16654 2.62464 2.24438 2.50504C2.32221 2.38544 2.43283 2.29222 2.56227 2.23718C2.6917 2.18213 2.83412 2.16773 2.97152 2.19579C3.10893 2.22385 3.23514 2.29312 3.3342 2.39483C3.43326 2.49654 3.50073 2.62613 3.52806 2.76721C3.55539 2.90828 3.54136 3.05451 3.48775 3.18741C3.43414 3.3203 3.34335 3.43388 3.22686 3.5138C3.11038 3.59371 2.97343 3.63636 2.83333 3.63636C2.64547 3.63636 2.4653 3.55974 2.33247 3.42335C2.19963 3.28696 2.125 3.10198 2.125 2.90909ZM4.25 2.90909C4.25 2.76525 4.29154 2.62464 4.36938 2.50504C4.44721 2.38544 4.55784 2.29222 4.68727 2.23718C4.8167 2.18213 4.95912 2.16773 5.09652 2.19579C5.23393 2.22385 5.36014 2.29312 5.4592 2.39483C5.55826 2.49654 5.62572 2.62613 5.65306 2.76721C5.68039 2.90828 5.66636 3.05451 5.61275 3.18741C5.55914 3.3203 5.46835 3.43388 5.35186 3.5138C5.23538 3.59371 5.09843 3.63636 4.95833 3.63636C4.77047 3.63636 4.5903 3.55974 4.45747 3.42335C4.32463 3.28696 4.25 3.10198 4.25 2.90909ZM6.375 2.90909C6.375 2.76525 6.41654 2.62464 6.49438 2.50504C6.57221 2.38544 6.68283 2.29222 6.81227 2.23718C6.9417 2.18213 7.08412 2.16773 7.22152 2.19579C7.35893 2.22385 7.48514 2.29312 7.5842 2.39483C7.68326 2.49654 7.75072 2.62613 7.77806 2.76721C7.80539 2.90828 7.79136 3.05451 7.73775 3.18741C7.68414 3.3203 7.59335 3.43388 7.47686 3.5138C7.36038 3.59371 7.22343 3.63636 7.08333 3.63636C6.89547 3.63636 6.7153 3.55974 6.58247 3.42335C6.44963 3.28696 6.375 3.10198 6.375 2.90909Z" fill="#798EA3"/>
</svg>
