<svg width="14" height="14" viewBox="0 0 14 14" fill="none" xmlns="http://www.w3.org/2000/svg">
<path d="M13.4948 14H0.505157C0.371182 14 0.242695 13.9468 0.14796 13.8522C0.0532258 13.7576 4.53645e-06 13.6292 4.53645e-06 13.4954V12.7746C-0.00112541 11.9505 0.20885 11.1398 0.609954 10.4197C1.01106 9.69963 1.58995 9.09402 2.29155 8.66052C2.99315 8.22702 3.79413 7.98005 4.61827 7.94311C5.44242 7.90616 6.26232 8.08047 6.99998 8.44946C7.71725 8.09793 8.50961 7.92667 9.3082 7.95054C10.1068 7.97441 10.8875 8.19269 11.5824 8.58642C12.3183 9.00789 12.9285 9.61746 13.3505 10.3525C13.7754 11.0865 13.9994 11.9194 13.9999 12.7673V13.4882C14.0009 13.5551 13.9885 13.6215 13.9636 13.6835C13.9386 13.7456 13.9016 13.802 13.8546 13.8497C13.8076 13.8973 13.7516 13.9351 13.6898 13.9609C13.628 13.9867 13.5617 14 13.4948 14ZM9.67007 12.9908H12.9896V12.7746C12.9873 12.1042 12.8108 11.446 12.4773 10.8643C12.1435 10.282 11.6602 9.79926 11.0773 9.46586C10.6168 9.20173 10.1065 9.03589 9.57859 8.97881C9.05068 8.92174 8.51666 8.97467 8.01028 9.13427L8.25564 9.35773C8.71005 9.80394 9.07153 10.3356 9.31924 10.922C9.56696 11.5085 9.696 12.1381 9.69893 12.7746L9.67007 12.9908ZM1.01031 12.9908H8.65976V12.7746C8.66236 12.1079 8.48895 11.4523 8.157 10.874C7.82505 10.2956 7.34631 9.81487 6.76905 9.48027H6.72575C6.00015 9.07713 5.16309 8.92031 4.34055 9.03342C3.51802 9.14652 2.75451 9.52343 2.16494 10.1074C1.44857 10.8134 1.0346 11.7696 1.01031 12.7746V12.9908ZM9.16492 6.7915C8.88983 6.79395 8.61563 6.76002 8.34946 6.69059C7.85401 6.56985 7.39255 6.33814 6.99998 6.01299C6.34817 6.55023 5.51873 6.82446 4.67476 6.78178C3.83078 6.73909 3.03332 6.38257 2.43917 5.78232C2.12323 5.46877 1.87249 5.0959 1.70139 4.68517C1.53029 4.27444 1.4422 3.83397 1.4422 3.3891C1.4422 2.94423 1.53029 2.50375 1.70139 2.09302C1.87249 1.68229 2.12323 1.30942 2.43917 0.995875C3.03518 0.397695 3.83363 0.0438217 4.67757 0.00380537C5.52151 -0.0362109 6.34992 0.240524 6.99998 0.77962C7.46336 0.402063 8.0179 0.152728 8.60809 0.056581C9.19827 -0.0395662 9.80339 0.0208478 10.3629 0.231774C11.107 0.510917 11.7294 1.04229 12.1214 1.73313C12.5133 2.42396 12.6498 3.23035 12.5072 4.01151C12.3645 4.79267 11.9517 5.49897 11.3409 6.00707C10.73 6.51518 9.95984 6.79281 9.16492 6.7915ZM7.67111 5.2561C7.9956 5.51429 8.3813 5.68445 8.79091 5.75012C9.20052 5.81578 9.62017 5.77473 10.0092 5.63094C10.4602 5.45797 10.848 5.1525 11.1216 4.75484C11.3951 4.35718 11.5416 3.88601 11.5416 3.40351C11.5416 2.92101 11.3951 2.44985 11.1216 2.05219C10.848 1.65453 10.4602 1.34906 10.0092 1.17609C9.5474 1.0037 9.04393 0.976037 8.56595 1.09679C8.22776 1.17681 7.91201 1.33205 7.64224 1.55093C8.00507 2.10081 8.19847 2.74493 8.19847 3.40351C8.19847 4.06209 8.00507 4.70621 7.64224 5.2561H7.67111ZM4.83504 1.02471C4.20403 1.02661 3.59941 1.27784 3.15321 1.72354C2.70702 2.16925 2.45551 2.7732 2.4536 3.40351C2.45474 3.71237 2.51719 4.01794 2.63734 4.30253C2.7575 4.58712 2.93297 4.84507 3.1536 5.06147C3.60429 5.48944 4.20237 5.72808 4.82421 5.72808C5.44605 5.72808 6.04413 5.48944 6.49482 5.06147C6.52788 5.03206 6.5592 5.00077 6.58864 4.96776C6.96587 4.53374 7.17358 3.97828 7.17358 3.40351C7.17358 2.82874 6.96587 2.27329 6.58864 1.83927C6.5599 1.79884 6.52856 1.76031 6.49482 1.72393C6.27819 1.50355 6.01995 1.32827 5.73505 1.20825C5.45014 1.08822 5.14424 1.02584 4.83504 1.02471Z" fill="white"/>
</svg>
