<svg width="18" height="16" viewBox="0 0 18 16" fill="none" xmlns="http://www.w3.org/2000/svg">
<path d="M15.4948 15.9724H2.50515C2.17617 15.9724 1.85041 15.9082 1.54647 15.7834C1.24253 15.6586 0.966368 15.4757 0.733743 15.2451C0.501118 15.0145 0.316589 14.7407 0.190694 14.4394C0.0647977 14.1381 0 13.8152 0 13.4891L0 5.21149C0.00732904 4.55767 0.274496 3.9331 0.743512 3.47335C1.21253 3.01359 1.84554 2.75575 2.50515 2.75579H6.49485V2.47987C6.49044 2.14898 6.55303 1.82058 6.67894 1.5141C6.80484 1.20762 6.99149 0.929287 7.22784 0.695582C7.70781 0.248738 8.34153 0 9 0C9.65847 0 10.2922 0.248738 10.7722 0.695582C11.0052 0.926024 11.1899 1.19987 11.3157 1.50136C11.4415 1.80285 11.5059 2.12602 11.5052 2.45228V2.75579H15.4948C16.1593 2.75579 16.7964 3.01742 17.2663 3.48313C17.7361 3.94884 18 4.58047 18 5.23908V13.5167C18 14.1753 17.7361 14.807 17.2663 15.2727C16.7964 15.7384 16.1593 16 15.4948 16V15.9724ZM2.50515 4.01583C2.18551 4.01745 1.87917 4.14287 1.65155 4.36533C1.42878 4.59205 1.30253 4.89502 1.29897 5.21149V13.4891C1.29878 13.6462 1.32983 13.8018 1.39032 13.947C1.45082 14.0922 1.53959 14.2241 1.65155 14.3353C1.87462 14.5679 2.18152 14.7035 2.50515 14.7124H15.4948C15.8145 14.7108 16.1208 14.5853 16.3485 14.3629C16.4604 14.2517 16.5492 14.1198 16.6097 13.9746C16.6702 13.8294 16.7012 13.6738 16.701 13.5167V5.23908C16.6975 4.92262 16.5712 4.61964 16.3485 4.39292C16.1208 4.17047 15.8145 4.04504 15.4948 4.04342H11.4216C11.3095 4.46532 11.0852 4.84965 10.7722 5.1563C10.2943 5.60728 9.65979 5.85881 9 5.85881C8.34021 5.85881 7.70569 5.60728 7.22784 5.1563C6.91476 4.84965 6.69046 4.46532 6.57835 4.04342L2.50515 4.01583ZM7.79381 3.37202C7.79363 3.5291 7.82467 3.68468 7.88517 3.82987C7.94566 3.97506 8.03443 4.10701 8.14639 4.21817C8.37718 4.4342 8.68258 4.55455 9 4.55455C9.31742 4.55455 9.62282 4.4342 9.85361 4.21817C9.96557 4.10701 10.0543 3.97506 10.1148 3.82987C10.1753 3.68468 10.2064 3.5291 10.2062 3.37202V2.45228C10.2026 2.13581 10.0764 1.83284 9.85361 1.60612C9.62078 1.39412 9.31615 1.27649 9 1.27649C8.68385 1.27649 8.37922 1.39412 8.14639 1.60612C7.92362 1.83284 7.79738 2.13581 7.79381 2.45228V3.37202ZM3.59072 13.2132C3.52028 13.2271 3.44776 13.2271 3.37732 13.2132C3.29624 13.1864 3.22141 13.1437 3.15724 13.0877C3.09306 13.0318 3.04084 12.9636 3.00365 12.8873C2.96647 12.811 2.94507 12.7281 2.94073 12.6435C2.93638 12.5589 2.94917 12.4743 2.97835 12.3946C3.21727 11.7324 3.65422 11.158 4.23093 10.7483L4.39794 10.6379C3.94388 10.173 3.69002 9.55132 3.69002 8.90423C3.69002 8.25715 3.94388 7.63543 4.39794 7.17053C4.87791 6.72368 5.51164 6.47495 6.1701 6.47495C6.82857 6.47495 7.46229 6.72368 7.94227 7.17053C8.4026 7.62943 8.66482 8.24782 8.67347 8.89492C8.68213 9.54202 8.43655 10.1671 7.98866 10.6379C8.64575 11.0507 9.14528 11.6689 9.40825 12.3946C9.46608 12.5556 9.45702 12.7328 9.38307 12.8872C9.30912 13.0415 9.17633 13.1605 9.01392 13.2178C8.85151 13.2751 8.67278 13.2661 8.51704 13.1928C8.36131 13.1195 8.24133 12.9879 8.18351 12.8269C8.04508 12.4142 7.78224 12.0536 7.43048 11.7938C7.07872 11.5339 6.65499 11.3873 6.21649 11.3737C5.77484 11.3765 5.34476 11.514 4.98458 11.7673C4.62441 12.0207 4.35157 12.3778 4.20309 12.7901C4.1573 12.9145 4.07393 13.0219 3.96434 13.0976C3.85476 13.1733 3.72429 13.2137 3.59072 13.2132ZM6.21649 7.69478C5.89685 7.69639 5.59051 7.82182 5.36289 8.04428C5.14012 8.27099 5.01388 8.57397 5.01031 8.89044C5.01012 9.04752 5.04117 9.2031 5.10166 9.34829C5.16216 9.49348 5.25093 9.62543 5.36289 9.73659C5.59367 9.95262 5.89907 10.073 6.21649 10.073C6.53392 10.073 6.83932 9.95262 7.0701 9.73659C7.18206 9.62543 7.27083 9.49348 7.33133 9.34829C7.39182 9.2031 7.42287 9.04752 7.42268 8.89044C7.41911 8.57397 7.29287 8.27099 7.0701 8.04428C6.84248 7.82182 6.53614 7.69639 6.21649 7.69478ZM13.6392 12.2935H11.7835C11.6113 12.2935 11.4461 12.2256 11.3243 12.1049C11.2024 11.9842 11.134 11.8204 11.134 11.6496C11.134 11.4789 11.2024 11.3151 11.3243 11.1944C11.4461 11.0737 11.6113 11.0058 11.7835 11.0058H13.6392C13.8114 11.0058 13.9766 11.0737 14.0984 11.1944C14.2202 11.3151 14.2887 11.4789 14.2887 11.6496C14.2887 11.8204 14.2202 11.9842 14.0984 12.1049C13.9766 12.2256 13.8114 12.2935 13.6392 12.2935ZM14.567 8.61451H11.7835C11.6113 8.61451 11.4461 8.54669 11.3243 8.42595C11.2024 8.30521 11.134 8.14145 11.134 7.9707C11.134 7.79995 11.2024 7.63619 11.3243 7.51545C11.4461 7.39471 11.6113 7.32688 11.7835 7.32688H14.567C14.7393 7.32688 14.9045 7.39471 15.0263 7.51545C15.1481 7.63619 15.2165 7.79995 15.2165 7.9707C15.2165 8.14145 15.1481 8.30521 15.0263 8.42595C14.9045 8.54669 14.7393 8.61451 14.567 8.61451Z" fill="white"/>
</svg>
