<svg width="6" height="12" viewBox="0 0 6 12" fill="none" xmlns="http://www.w3.org/2000/svg">
<path d="M0.531478 12C0.461935 12.0004 0.392997 11.9878 0.328616 11.9629C0.264236 11.938 0.205679 11.9013 0.156304 11.855C0.106777 11.8085 0.0674657 11.7533 0.0406388 11.6923C0.0138119 11.6314 0 11.5661 0 11.5001C0 11.4341 0.0138119 11.3687 0.0406388 11.3078C0.0674657 11.2469 0.106777 11.1916 0.156304 11.1451L4.47344 7.06084C4.77031 6.77963 4.93705 6.39845 4.93705 6.00102C4.93705 5.60358 4.77031 5.2224 4.47344 4.9412L0.156304 0.856899C0.0568016 0.762763 0.000901791 0.635088 0.000901791 0.50196C0.000901791 0.368832 0.0568016 0.241156 0.156304 0.147021C0.255806 0.0528849 0.39076 0 0.531478 0C0.672195 0 0.807149 0.0528849 0.906652 0.147021L5.22379 4.23132C5.46984 4.46351 5.66505 4.73934 5.79824 5.04301C5.93144 5.34669 6 5.67224 6 6.00102C6 6.3298 5.93144 6.65535 5.79824 6.95902C5.66505 7.2627 5.46984 7.53853 5.22379 7.77072L0.906652 11.855C0.857277 11.9013 0.79872 11.938 0.734339 11.9629C0.669959 11.9878 0.601021 12.0004 0.531478 12Z" fill="#798EA3"/>
</svg>
