<svg width="16" height="16" viewBox="0 0 16 16" fill="none" xmlns="http://www.w3.org/2000/svg">
<path d="M12.4373 0.62135L4.30926 8.74934C3.99883 9.05811 3.75272 9.42538 3.58519 9.8299C3.41765 10.2344 3.33203 10.6682 3.33327 11.106V12.0013C3.33327 12.1782 3.4035 12.3477 3.52853 12.4727C3.65355 12.5978 3.82312 12.668 3.99993 12.668H4.89526C5.3331 12.6692 5.76684 12.5836 6.17137 12.4161C6.57589 12.2486 6.94317 12.0024 7.25193 11.692L15.3799 3.56401C15.7695 3.17346 15.9883 2.64433 15.9883 2.09268C15.9883 1.54103 15.7695 1.0119 15.3799 0.62135C14.9837 0.242612 14.4567 0.03125 13.9086 0.03125C13.3605 0.03125 12.8335 0.242612 12.4373 0.62135ZM14.4373 2.62135L6.30926 10.7493C5.93335 11.123 5.42527 11.3333 4.89526 11.3347H4.6666V11.106C4.66799 10.576 4.87831 10.0679 5.25193 9.69201L13.3799 1.56402C13.5223 1.42799 13.7117 1.35208 13.9086 1.35208C14.1055 1.35208 14.2949 1.42799 14.4373 1.56402C14.5772 1.70436 14.6558 1.89448 14.6558 2.09268C14.6558 2.29089 14.5772 2.481 14.4373 2.62135Z" fill="#798EA3"/>
<path d="M15.3333 5.98599C15.1565 5.98599 14.9869 6.05623 14.8619 6.18126C14.7369 6.30628 14.6667 6.47585 14.6667 6.65266V9.99999H12C11.4696 9.99999 10.9608 10.2107 10.5858 10.5858C10.2107 10.9608 9.99999 11.4696 9.99999 12V14.6667H3.33333C2.8029 14.6667 2.29419 14.4559 1.91912 14.0809C1.54405 13.7058 1.33333 13.1971 1.33333 12.6667V3.33333C1.33333 2.8029 1.54405 2.29419 1.91912 1.91912C2.29419 1.54405 2.8029 1.33333 3.33333 1.33333H9.36133C9.53814 1.33333 9.7077 1.26309 9.83273 1.13807C9.95775 1.01305 10.028 0.843477 10.028 0.666666C10.028 0.489855 9.95775 0.320286 9.83273 0.195262C9.7077 0.0702378 9.53814 0 9.36133 0L3.33333 0C2.4496 0.00105857 1.60237 0.352588 0.977479 0.977479C0.352588 1.60237 0.00105857 2.4496 0 3.33333L0 12.6667C0.00105857 13.5504 0.352588 14.3976 0.977479 15.0225C1.60237 15.6474 2.4496 15.9989 3.33333 16H10.8953C11.3333 16.0012 11.7671 15.9156 12.1717 15.7481C12.5764 15.5806 12.9438 15.3344 13.2527 15.024L15.0233 13.252C15.3338 12.9432 15.58 12.576 15.7477 12.1715C15.9153 11.7669 16.0011 11.3332 16 10.8953V6.65266C16 6.47585 15.9297 6.30628 15.8047 6.18126C15.6797 6.05623 15.5101 5.98599 15.3333 5.98599ZM12.31 14.0813C12.042 14.3487 11.7031 14.5337 11.3333 14.6147V12C11.3333 11.8232 11.4036 11.6536 11.5286 11.5286C11.6536 11.4036 11.8232 11.3333 12 11.3333H14.6167C14.5342 11.7023 14.3493 12.0406 14.0833 12.3093L12.31 14.0813Z" fill="#798EA3"/>
</svg>
