<svg width="16" height="16" viewBox="0 0 16 16" fill="none" xmlns="http://www.w3.org/2000/svg">
<path d="M7.99284 16C6.94069 16.0022 5.89855 15.7956 4.92678 15.3923C3.95343 14.9921 3.07045 14.4003 2.33029 13.6521C2.17376 13.4956 2.01724 13.3298 1.87913 13.1641C1.34294 12.522 0.908223 11.8016 0.590092 11.028C-0.105477 9.31754 -0.188776 7.4193 0.354292 5.6545C0.897359 3.88969 2.03344 2.36668 3.5703 1.34319C5.10716 0.319705 6.95042 -0.141417 8.78817 0.0378562C10.6259 0.217129 12.3453 1.02579 13.6554 2.327C14.7706 3.44444 15.5307 4.86648 15.8403 6.41453C16.1499 7.96257 15.9952 9.56759 15.3956 11.028C14.577 13.0038 13.0071 14.5737 11.0313 15.3923C10.0681 15.7921 9.03569 15.9985 7.99284 16ZM3.38914 12.9155C3.97098 13.4611 4.64827 13.8949 5.38715 14.1953C6.20157 14.5327 7.07447 14.7064 7.95601 14.7064C8.83755 14.7064 9.71045 14.5327 10.5249 14.1953C11.2638 13.8949 11.941 13.4611 12.5229 12.9155C11.0912 12.2543 9.533 11.9119 7.95601 11.9119C6.37902 11.9119 4.82083 12.2543 3.38914 12.9155ZM7.9376 10.6229C9.85473 10.6247 11.7444 11.0789 13.4528 11.9487C13.7548 11.5291 14.0052 11.0747 14.1986 10.5952C14.8192 9.15636 14.9167 7.54572 14.4744 6.04246C14.032 4.53921 13.0777 3.23808 11.7768 2.36459C10.4758 1.4911 8.91027 1.1003 7.35144 1.25992C5.7926 1.41953 4.33874 2.11951 3.24182 3.23853C2.29074 4.18017 1.64377 5.3853 1.38445 6.69832C1.12513 8.01133 1.26537 9.37193 1.78705 10.6044C1.98113 11.0807 2.23151 11.532 2.53285 11.9487C4.21852 11.0885 6.082 10.6345 7.97443 10.6229H7.9376ZM7.9376 9.45352C7.11409 9.44864 6.32609 9.11755 5.74623 8.53278C5.45782 8.24537 5.22898 7.90385 5.07284 7.52781C4.91669 7.15176 4.83631 6.7486 4.83631 6.34142C4.83631 5.93425 4.91669 5.53108 5.07284 5.15504C5.22898 4.779 5.45782 4.43748 5.74623 4.15006C6.34113 3.59539 7.12423 3.28695 7.9376 3.28695C8.75096 3.28695 9.53406 3.59539 10.129 4.15006C10.4174 4.43748 10.6462 4.779 10.8024 5.15504C10.9585 5.53108 11.0389 5.93425 11.0389 6.34142C11.0389 6.7486 10.9585 7.15176 10.8024 7.52781C10.6462 7.90385 10.4174 8.24537 10.129 8.53278C9.56269 9.10427 8.79712 9.43425 7.99284 9.45352H7.9376ZM7.99284 4.58281C7.51424 4.58479 7.05521 4.77302 6.71301 5.10763C6.3811 5.45101 6.19557 5.90989 6.19557 6.38746C6.19557 6.86503 6.3811 7.32391 6.71301 7.66729C7.05639 7.9992 7.51527 8.18473 7.99284 8.18473C8.47041 8.18473 8.92929 7.9992 9.27267 7.66729C9.60458 7.32391 9.79011 6.86503 9.79011 6.38746C9.79011 5.90989 9.60458 5.45101 9.27267 5.10763C8.93047 4.77302 8.47144 4.58479 7.99284 4.58281Z" fill="#798EA3"/>
</svg>
