<svg width="16" height="12" viewBox="0 0 16 12" fill="none" xmlns="http://www.w3.org/2000/svg">
<path d="M11.6364 11.9964V10.5419C11.6364 9.77036 11.3299 9.03043 10.7843 8.48487C10.2388 7.93931 9.49881 7.63281 8.72727 7.63281H2.90909C2.13755 7.63281 1.39761 7.93931 0.852053 8.48487C0.306493 9.03043 0 9.77036 0 10.5419V11.9964" fill="white"/>
<path d="M5.81729 5.81818C7.42394 5.81818 8.72639 4.51574 8.72639 2.90909C8.72639 1.30244 7.42394 0 5.81729 0C4.21065 0 2.9082 1.30244 2.9082 2.90909C2.9082 4.51574 4.21065 5.81818 5.81729 5.81818Z" fill="white"/>
<path d="M15 1.3C15.3866 1.3 15.7 1.6134 15.7 2C15.7 2.3866 15.3866 2.7 15 2.7V1.3ZM11 2.7C10.6134 2.7 10.3 2.3866 10.3 2C10.3 1.6134 10.6134 1.3 11 1.3V2.7ZM15 2.7H11V1.3H15V2.7Z" fill="white"/>
<path d="M15 4.3C15.3866 4.3 15.7 4.6134 15.7 5C15.7 5.3866 15.3866 5.7 15 5.7V4.3ZM12 5.7C11.6134 5.7 11.3 5.3866 11.3 5C11.3 4.6134 11.6134 4.3 12 4.3V5.7ZM15 5.7H12V4.3H15V5.7Z" fill="white"/>
<path d="M15 7.3C15.3866 7.3 15.7 7.6134 15.7 8C15.7 8.3866 15.3866 8.7 15 8.7V7.3ZM14 8.7C13.6134 8.7 13.3 8.3866 13.3 8C13.3 7.6134 13.6134 7.3 14 7.3V8.7ZM15 8.7H14V7.3H15V8.7Z" fill="white"/>
</svg>
