<svg version="1.0" xmlns="http://www.w3.org/2000/svg" width="100" height="100" xml:space="preserve"><path fill="#8BC34A" d="M55.296 29.345a153.2 153.2 0 0 1 7.957 7.406c2.638 2.637 5.11 5.3 7.414 7.964l-4.263 5.284a141.157 141.157 0 0 0-7.867-8.534 143.22 143.22 0 0 0-8.543-7.865l5.302-4.255z"/><path fill="#263238" d="M87.732 12.267c-5.778-5.782-21.23-.137-37.731 12.747l-5.287 4.319a151.15 151.15 0 0 0-15.373 15.375L25.009 50C12.134 66.503 6.485 81.955 12.268 87.733c5.778 5.781 21.234.134 37.734-12.747l5.289-4.321a151.284 151.284 0 0 0 7.96-7.411 150.877 150.877 0 0 0 7.411-7.959L74.986 50c12.883-16.502 18.53-31.954 12.746-37.733zm-7.686 17.535c-2.267 4.721-5.473 9.784-9.379 14.912l-4.263 5.284a146.105 146.105 0 0 1-7.869 8.542 140.97 140.97 0 0 1-8.531 7.861l-5.297 4.261c-10.984 8.347-20.635 12.676-25.922 12.676-1.221 0-1.742-.256-1.804-.316-.335-.336-1.206-4.12 2.976-12.823 2.266-4.72 5.469-9.782 9.375-14.91l4.265-5.28a142.632 142.632 0 0 1 7.859-8.54 144.073 144.073 0 0 1 8.537-7.869l5.302-4.254c10.981-8.352 20.631-12.682 25.919-12.682 1.223 0 1.739.254 1.805.319.336.334 1.206 4.117-2.973 12.819z"/><path fill="#8BC34A" d="M44.707 70.662a147.624 147.624 0 0 1-7.958-7.407 151.506 151.506 0 0 1-7.417-7.967l4.265-5.28a143.018 143.018 0 0 0 7.866 8.532 142.903 142.903 0 0 0 8.54 7.861l-5.296 4.261zM74.986 50c12.881 16.5 18.529 31.952 12.746 37.733-5.777 5.781-21.23.134-37.731-12.747l5.289-4.321c5.128 3.905 10.19 7.111 14.908 9.379 8.702 4.181 12.485 3.309 12.821 2.973.062-.063.318-.581.318-1.801 0-5.291-4.33-14.937-12.677-25.921L74.986 50zM29.34 44.708c-8.347-10.985-12.678-20.636-12.678-25.922 0-1.218.255-1.739.318-1.804.332-.332 4.117-1.206 12.82 2.976 4.722 2.266 9.781 5.473 14.913 9.375L50 25.014C33.495 12.13 18.043 6.488 12.268 12.267 6.485 18.049 12.13 33.498 25.009 50l4.331-5.292z"/></svg>